<?xml version="1.0" encoding="UTF-8" standalone="no"?>
<svg
   width="307.801mm"
   height="453.876mm"
   viewBox="0 0 307.801 453.876"
   version="1.1"
   id="svg54"
   sodipodi:docname="main.svg"
   inkscape:version="1.4.3 (0d15f75042, 2025-12-25)"
   xmlns:inkscape="http://www.inkscape.org/namespaces/inkscape"
   xmlns:sodipodi="http://sodipodi.sourceforge.net/DTD/sodipodi-0.dtd"
   xmlns:xlink="http://www.w3.org/1999/xlink"
   xmlns="http://www.w3.org/2000/svg"
   xmlns:svg="http://www.w3.org/2000/svg">
  <defs
     id="defs54">
    <linearGradient
       id="linearGradient54"
       inkscape:collect="always">
      <stop
         style="stop-color:#ffffff;stop-opacity:1;"
         offset="0"
         id="stop54" />
      <stop
         style="stop-color:#d0d0d0;stop-opacity:1;"
         offset="0.08442681"
         id="stop57" />
      <stop
         style="stop-color:#ffffff;stop-opacity:1;"
         offset="0.17351006"
         id="stop56" />
      <stop
         style="stop-color:#ffffff;stop-opacity:1;"
         offset="0.19209565"
         id="stop62" />
      <stop
         style="stop-color:#d0d0d0;stop-opacity:1;"
         offset="0.2491217"
         id="stop59" />
      <stop
         style="stop-color:#ffffff;stop-opacity:1;"
         offset="0.3336879"
         id="stop60" />
      <stop
         style="stop-color:#ffffff;stop-opacity:1;"
         offset="0.42170393"
         id="stop61" />
      <stop
         style="stop-color:#d0d0d0;stop-opacity:1;"
         offset="0.58062798"
         id="stop58" />
      <stop
         style="stop-color:#d0d0d0;stop-opacity:1;"
         offset="1"
         id="stop55" />
    </linearGradient>
    <linearGradient
       inkscape:collect="always"
       xlink:href="#linearGradient54"
       id="linearGradient55"
       x1="31.486"
       y1="42.167"
       x2="302.28738"
       y2="446.96283"
       gradientUnits="userSpaceOnUse" />
  </defs>
  <sodipodi:namedview
     id="namedview54"
     pagecolor="#ffffff"
     bordercolor="#000000"
     borderopacity="0.25"
     inkscape:showpageshadow="2"
     inkscape:pageopacity="0.0"
     inkscape:pagecheckerboard="0"
     inkscape:deskcolor="#d1d1d1"
     inkscape:document-units="mm"
     inkscape:zoom="0.044194174"
     inkscape:cx="-2421.1336"
     inkscape:cy="-124.45079"
     inkscape:window-width="1920"
     inkscape:window-height="1012"
     inkscape:window-x="0"
     inkscape:window-y="0"
     inkscape:window-maximized="1"
     inkscape:current-layer="svg54" />
  <title
     id="title1">Exported SVG</title>
  <style
     id="style1"><![CDATA[
polygon {
shape-rendering:crispEdges;
stroke-width:0.453876;
}
.s0 {
stroke:#000000;
stroke-width:0.548223;
stroke-linecap:round;
stroke-linejoin:round;
fill:none;
}
.s1 {
stroke:#000000;
stroke-width:0.548223;
stroke-linecap:round;
stroke-linejoin:round;
fill:none;
}
.s2 {
stroke:#19b219;
stroke-width:0.548223;
stroke-linecap:round;
stroke-linejoin:round;
fill:none;
}
.s3 {
stroke:#7f4c00;
stroke-width:0.548223;
stroke-linecap:round;
stroke-linejoin:round;
fill:none;
}
.s4 {
stroke:#00cc00;
stroke-width:0.548223;
stroke-linecap:round;
stroke-linejoin:round;
fill:none;
}
.s5 {
stroke:#000000;
stroke-width:0.365482;
stroke-linecap:round;
stroke-linejoin:round;
fill:none;
}
.s6 {
stroke:#ff19ff;
stroke-width:0.365482;
stroke-linecap:round;
stroke-linejoin:round;
fill:none;
}
.s7 {
stroke:#ff0000;
stroke-width:0.548223;
stroke-linecap:round;
stroke-linejoin:round;
fill:none;
}
.s8 {
stroke:#ffff00;
stroke-width:0.548223;
stroke-linecap:round;
stroke-linejoin:round;
fill:none;
}
.s9 {
stroke:#001919;
stroke-width:0.365482;
stroke-linecap:round;
stroke-linejoin:round;
fill:none;
}
.sa {
stroke:#006666;
stroke-width:0.365482;
stroke-linecap:round;
stroke-linejoin:round;
fill:none;
}
.sb {
stroke:#00ffff;
stroke-width:1.096447;
stroke-linecap:round;
stroke-linejoin:round;
fill:none;
}
.sc {
stroke:#ff0000;
stroke-width:2.923858;
stroke-linecap:round;
stroke-linejoin:round;
fill:none;
}
.sd {
stroke:#191919;
stroke-width:0.365482;
stroke-linecap:round;
stroke-linejoin:round;
fill:none;
}
.se {
stroke:#000000;
stroke-width:0.365482;
stroke-linecap:round;
stroke-linejoin:round;
stroke-dasharray:5.482,5.482;
fill:none;
}
.sf {
stroke:#000000;
stroke-width:1.096447;
stroke-linecap:round;
stroke-linejoin:round;
fill:none;
}
]]></style>
  <path
     id="path1"
     style="fill:url(#linearGradient55);fill-opacity:1;fill-rule:nonzero;stroke-width:5;stroke-dasharray:none;stroke:#9a9a9a;stroke-opacity:1"
     class="s1"
     d="M 43.841252 5.8652751 A 7.5 7.5 0 0 0 41.899768 6.1210734 A 7.5 7.5 0 0 0 36.596216 11.424109 L 30.90509 32.66519 A 15 15 0 0 0 31.485933 42.166935 L 83.468807 170.82988 A 15 15 0 0 1 83.369071 182.3098 L 7.1308309 361.91693 A 7.5 7.5 0 0 0 9.1177897 370.51123 L 94.763208 444.85295 A 7.5 7.5 0 0 0 104.25824 445.12994 L 116.13813 435.97287 A 2.5 2.5 0 0 1 116.13193 432.92913 A 2.5 2.5 0 0 1 119.07025 432.13486 A 2.5 2.5 0 0 1 120.59781 434.76674 L 148.04574 438.32105 A 12.5 12.5 0 0 0 157.28187 435.82404 L 270.3158 348.7012 A 12.5 12.5 0 0 0 275.08088 340.40506 L 278.63519 312.95609 A 2.5 2.5 0 0 1 276.47821 310.80894 A 2.5 2.5 0 0 1 277.99388 308.16879 A 2.5 2.5 0 0 1 280.93582 308.95117 L 292.81624 299.7941 A 7.5 7.5 0 0 0 295.14116 290.92281 L 249.03803 182.3098 A 15 15 0 0 1 248.93778 170.82988 L 300.92117 42.166935 A 15 15 0 0 0 301.50201 32.66519 L 295.81088 11.424109 A 7.5 7.5 0 0 0 290.50682 6.1210734 A 7.5 7.5 0 0 0 283.26281 8.0620402 L 193.45382 97.871029 L 194.20623 158.84715 A 2 2 0 0 1 193.22025 160.59485 A 2 2 0 0 1 191.21313 160.60725 A 2 2 0 0 1 190.20596 158.87092 L 190.20596 133.8709 L 166.20381 133.8709 L 142.20114 133.8709 L 142.20114 158.87092 A 2 2 0 0 1 141.19397 160.60725 A 2 2 0 0 1 139.18685 160.59485 A 2 2 0 0 1 138.20087 158.84715 L 138.95379 97.871029 L 49.14377 8.0620402 A 7.5 7.5 0 0 0 43.841252 5.8652751 z M 43.841252 11.365198 A 2 2 0 0 1 45.84113 13.365076 A 2 2 0 0 1 43.841252 15.364954 A 2 2 0 0 1 41.840857 13.365076 A 2 2 0 0 1 43.841252 11.365198 z M 288.56585 11.365198 A 2 2 0 0 1 290.56624 13.365076 A 2 2 0 0 1 288.56585 15.364954 A 2 2 0 0 1 286.56597 13.365076 A 2 2 0 0 1 288.56585 11.365198 z M 126.20418 104.87112 A 3 3 0 0 1 129.204 107.87094 A 3 3 0 0 1 126.20418 110.87075 A 3 3 0 0 1 123.20385 107.87094 A 3 3 0 0 1 126.20418 104.87112 z M 206.20395 104.87112 A 3 3 0 0 1 209.20377 107.87094 A 3 3 0 0 1 206.20395 110.87075 A 3 3 0 0 1 203.20413 107.87094 A 3 3 0 0 1 206.20395 104.87112 z M 126.20418 144.87074 A 3 3 0 0 1 129.204 147.87108 A 3 3 0 0 1 126.20418 150.87089 A 3 3 0 0 1 123.20385 147.87108 A 3 3 0 0 1 126.20418 144.87074 z M 206.20395 144.87074 A 3 3 0 0 1 209.20377 147.87108 A 3 3 0 0 1 206.20395 150.87089 A 3 3 0 0 1 203.20413 147.87108 A 3 3 0 0 1 206.20395 144.87074 z M 165.86843 144.88211 A 5 5 0 0 1 169.56794 146.17196 A 5 5 0 0 1 170.20408 152.87077 L 162.20405 152.87077 A 5 5 0 0 1 162.83916 146.17196 A 5 5 0 0 1 165.86843 144.88211 z M 133.45387 173.87104 L 198.95375 173.87104 A 2.5 2.5 0 0 1 201.45385 176.37115 L 201.45385 210.37114 A 2.5 2.5 0 0 1 198.95375 212.87124 L 133.45387 212.87124 A 2.5 2.5 0 0 1 130.95376 210.37114 L 130.95376 176.37115 A 2.5 2.5 0 0 1 133.45387 173.87104 z M 127.45424 191.87098 A 1.5 1.5 0 0 1 128.95389 193.37114 A 1.5 1.5 0 0 1 127.45424 194.87079 A 1.5 1.5 0 0 1 125.95407 193.37114 A 1.5 1.5 0 0 1 127.45424 191.87098 z M 204.9539 191.87098 A 1.5 1.5 0 0 1 206.45406 193.37114 A 1.5 1.5 0 0 1 204.9539 194.87079 A 1.5 1.5 0 0 1 203.45425 193.37114 A 1.5 1.5 0 0 1 204.9539 191.87098 z M 133.45387 261.87084 L 198.95375 261.87084 A 2.5 2.5 0 0 1 201.45385 264.37094 L 201.45385 298.37094 A 2.5 2.5 0 0 1 198.95375 300.87104 L 133.45387 300.87104 A 2.5 2.5 0 0 1 130.95376 298.37094 L 130.95376 264.37094 A 2.5 2.5 0 0 1 133.45387 261.87084 z M 127.45424 279.87077 A 1.5 1.5 0 0 1 128.95389 281.37094 A 1.5 1.5 0 0 1 127.45424 282.87111 A 1.5 1.5 0 0 1 125.95407 281.37094 A 1.5 1.5 0 0 1 127.45424 279.87077 z M 204.9539 279.87077 A 1.5 1.5 0 0 1 206.45406 281.37094 A 1.5 1.5 0 0 1 204.9539 282.87111 A 1.5 1.5 0 0 1 203.45425 281.37094 A 1.5 1.5 0 0 1 204.9539 279.87077 z M 90.73193 288.39325 A 1 1 0 0 1 91.731868 289.39319 L 91.731868 304.39279 A 1 1 0 0 1 90.73193 305.39325 A 1 1 0 0 1 89.731991 304.39279 L 89.731991 289.39319 A 1 1 0 0 1 90.73193 288.39325 z M 97.732019 288.39325 A 1 1 0 0 1 98.731958 289.39319 L 98.731958 304.39279 A 1 1 0 0 1 97.732019 305.39325 A 1 1 0 0 1 96.73208 304.39279 L 96.73208 289.39319 A 1 1 0 0 1 97.732019 288.39325 z M 288.23822 291.85299 A 2 2 0 0 1 290.2381 293.85286 A 2 2 0 0 1 288.23822 295.85274 A 2 2 0 0 1 286.23783 293.85286 A 2 2 0 0 1 288.23822 291.85299 z M 138.20397 310.57122 L 139.95425 310.57122 A 2 2 0 0 1 141.95413 312.5711 A 2 2 0 0 1 139.95425 314.57098 L 138.20397 314.57098 A 2 2 0 0 1 136.20409 312.5711 A 2 2 0 0 1 138.20397 310.57122 z M 192.45389 310.57122 L 194.20417 310.57122 A 2 2 0 0 1 196.20404 312.5711 A 2 2 0 0 1 194.20417 314.57098 L 192.45389 314.57098 A 2 2 0 0 1 190.45401 312.5711 A 2 2 0 0 1 192.45389 310.57122 z M 139.95425 324.57089 A 2 2 0 0 1 141.95413 326.57076 L 141.95413 333.07114 A 2 2 0 0 1 139.95425 335.07102 A 2 2 0 0 1 137.95385 333.07114 L 137.95385 326.57076 A 2 2 0 0 1 139.95425 324.57089 z M 150.45387 324.57089 A 2 2 0 0 1 152.45374 326.57076 L 152.45374 333.07114 A 2 2 0 0 1 150.45387 335.07102 A 2 2 0 0 1 148.45399 333.07114 L 148.45399 326.57076 A 2 2 0 0 1 150.45387 324.57089 z M 160.954 324.57089 A 2 2 0 0 1 162.95388 326.57076 L 162.95388 333.07114 A 2 2 0 0 1 160.954 335.07102 A 2 2 0 0 1 158.95412 333.07114 L 158.95412 326.57076 A 2 2 0 0 1 160.954 324.57089 z M 171.45413 324.57089 A 2 2 0 0 1 173.45401 326.57076 L 173.45401 333.07114 A 2 2 0 0 1 171.45413 335.07102 A 2 2 0 0 1 169.45426 333.07114 L 169.45426 326.57076 A 2 2 0 0 1 171.45413 324.57089 z M 181.95375 324.57089 A 2 2 0 0 1 183.95415 326.57076 L 183.95415 333.07114 A 2 2 0 0 1 181.95375 335.07102 A 2 2 0 0 1 179.95387 333.07114 L 179.95387 326.57076 A 2 2 0 0 1 181.95375 324.57089 z M 192.45389 324.57089 A 2 2 0 0 1 194.45376 326.57076 L 194.45376 333.07114 A 2 2 0 0 1 192.45389 335.07102 A 2 2 0 0 1 190.45401 333.07114 L 190.45401 326.57076 A 2 2 0 0 1 192.45389 324.57089 z M 202.2042 331.07075 A 5 5 0 0 1 207.20389 336.07096 A 5 5 0 0 1 202.2042 341.07117 A 5 5 0 0 1 197.20398 336.07096 A 5 5 0 0 1 202.2042 331.07075 z M 94.231458 331.39218 A 3 3 0 0 1 96.352775 332.27119 A 3 3 0 0 1 96.352775 336.51383 L 89.281889 343.58523 A 8 8 0 0 0 85.039254 339.34208 L 92.11014 332.27119 A 3 3 0 0 1 94.231458 331.39218 z M 262.68526 334.30001 A 4.5 4.5 0 0 1 267.18524 338.79999 A 4.5 4.5 0 0 1 262.68526 343.29998 A 4.5 4.5 0 0 1 258.18476 338.79999 A 4.5 4.5 0 0 1 262.68526 334.30001 z M 145.20406 335.57125 A 2 2 0 0 1 147.20393 337.57113 A 2 2 0 0 1 145.20406 339.571 A 2 2 0 0 1 143.20418 337.57113 A 2 2 0 0 1 145.20406 335.57125 z M 155.70419 335.57125 A 2 2 0 0 1 157.70407 337.57113 A 2 2 0 0 1 155.70419 339.571 A 2 2 0 0 1 153.7038 337.57113 A 2 2 0 0 1 155.70419 335.57125 z M 166.20381 335.57125 A 2 2 0 0 1 168.2042 337.57113 A 2 2 0 0 1 166.20381 339.571 A 2 2 0 0 1 164.20393 337.57113 A 2 2 0 0 1 166.20381 335.57125 z M 176.70394 335.57125 A 2 2 0 0 1 178.70382 337.57113 A 2 2 0 0 1 176.70394 339.571 A 2 2 0 0 1 174.70406 337.57113 A 2 2 0 0 1 176.70394 335.57125 z M 187.20408 335.57125 A 2 2 0 0 1 189.20396 337.57113 A 2 2 0 0 1 187.20408 339.571 A 2 2 0 0 1 185.2042 337.57113 A 2 2 0 0 1 187.20408 335.57125 z M 81.916964 343.70822 A 3 3 0 0 1 84.916781 346.70804 A 3 3 0 0 1 81.916964 349.70785 A 3 3 0 0 1 78.917147 346.70804 A 3 3 0 0 1 81.916964 343.70822 z M 246.53689 346.74679 A 4.5 4.5 0 0 1 251.03687 351.24678 A 4.5 4.5 0 0 1 246.53689 355.74676 A 4.5 4.5 0 0 1 242.03691 351.24678 A 4.5 4.5 0 0 1 246.53689 346.74679 z M 230.38904 359.19306 A 4.5 4.5 0 0 1 234.88902 363.69305 A 4.5 4.5 0 0 1 230.38904 368.19303 A 4.5 4.5 0 0 1 225.88905 363.69305 A 4.5 4.5 0 0 1 230.38904 359.19306 z M 14.034802 362.8471 A 2 2 0 0 1 16.035197 364.84698 A 2 2 0 0 1 14.034802 366.84686 A 2 2 0 0 1 12.034924 364.84698 A 2 2 0 0 1 14.034802 362.8471 z M 127.70435 369.24051 A 1 1 0 0 1 128.4981 369.63015 L 137.6562 381.51005 A 1 1 0 0 1 137.47378 382.91306 A 1 1 0 0 1 136.07076 382.73116 L 126.91422 370.85075 A 1 1 0 0 1 127.09612 369.44825 A 1 1 0 0 1 127.70435 369.24051 z M 214.24222 371.63881 A 4.5 4.5 0 0 1 218.7422 376.1388 A 4.5 4.5 0 0 1 214.24222 380.63878 A 4.5 4.5 0 0 1 209.74224 376.1388 A 4.5 4.5 0 0 1 214.24222 371.63881 z M 122.15999 373.51415 A 1 1 0 0 1 122.95425 373.90276 L 132.1108 385.7842 A 1 1 0 0 1 131.92993 387.18619 A 1 1 0 0 1 130.52692 387.0048 L 121.36985 375.12387 A 1 1 0 0 1 121.55175 373.72189 A 1 1 0 0 1 122.15999 373.51415 z M 198.09385 384.08508 A 4.5 4.5 0 0 1 202.59384 388.58507 A 4.5 4.5 0 0 1 198.09385 393.08505 A 4.5 4.5 0 0 1 193.59387 388.58507 A 4.5 4.5 0 0 1 198.09385 384.08508 z M 181.946 396.53187 A 4.5 4.5 0 0 1 186.44598 401.03185 A 4.5 4.5 0 0 1 181.946 405.53184 A 4.5 4.5 0 0 1 177.44602 401.03185 A 4.5 4.5 0 0 1 181.946 396.53187 z M 165.79918 408.97814 A 4.5 4.5 0 0 1 170.29917 413.47812 A 4.5 4.5 0 0 1 165.79918 417.9781 A 4.5 4.5 0 0 1 161.2992 413.47812 A 4.5 4.5 0 0 1 165.79918 408.97814 z M 149.65081 421.42389 A 4.5 4.5 0 0 1 154.1508 425.92387 A 4.5 4.5 0 0 1 149.65081 430.42386 A 4.5 4.5 0 0 1 145.15083 425.92387 A 4.5 4.5 0 0 1 149.65081 421.42389 z M 99.679187 437.18985 A 2 2 0 0 1 101.67906 439.19025 A 2 2 0 0 1 99.679187 441.19012 A 2 2 0 0 1 97.678792 439.19025 A 2 2 0 0 1 99.679187 437.18985 z " />
  <path
     d="M142.201 158.871 L190.206,158.871 "
     class="s1"
     id="path46"
     style="stroke-width:5;stroke-dasharray:none;stroke:#9a9a9a;stroke-opacity:1" />
  <path
     d="M276.976 312.003 L120.098,432.920 "
     class="s1"
     id="path47"
     style="stroke-width:5;stroke-dasharray:none;stroke:#9a9a9a;stroke-opacity:1" />
  <path
     d="M68.917 342.708 L68.917,346.708 L64.917,346.708 "
     class="s1"
     id="path48"
     style="stroke-width:5;stroke-dasharray:none;stroke:#9a9a9a;stroke-opacity:1" />
  <path
     d="M68.917 346.708 L72.917,346.708 "
     class="s1"
     id="path49"
     style="stroke-width:5;stroke-dasharray:none;stroke:#9a9a9a;stroke-opacity:1" />
  <path
     d="M66.250 348.041 L71.583,348.041 "
     class="s1"
     id="path50"
     style="stroke-width:5;stroke-dasharray:none;stroke:#9a9a9a;stroke-opacity:1" />
  <path
     d="M67.583 349.374 L70.250,349.374 "
     class="s1"
     id="path51"
     style="stroke-width:5;stroke-dasharray:none;stroke:#9a9a9a;stroke-opacity:1" />
  <path
     d="M69.920 351.606 A5.000,5.000 0 0,0 73.248,349.205 A5.000,5.000 0 0,0 73.658,345.121 "
     class="s1"
     id="path52"
     style="stroke-width:5;stroke-dasharray:none;stroke:#9a9a9a;stroke-opacity:1" />
  <path
     d="M72.657 343.390 A5.000,5.000 0 0,0 68.913,341.708 A5.000,5.000 0 0,0 65.172,343.395 "
     class="s1"
     id="path53"
     style="stroke-width:5;stroke-dasharray:none;stroke:#9a9a9a;stroke-opacity:1" />
  <path
     d="M64.173 345.127 A5.000,5.000 0 0,0 64.588,349.210 A5.000,5.000 0 0,0 67.920,351.607 "
     class="s1"
     id="path54"
     style="stroke-width:5;stroke-dasharray:none;stroke:#9a9a9a;stroke-opacity:1" />
</svg>
