<?xml version="1.0" encoding="UTF-8" standalone="no"?>
<svg
   width="157.066mm"
   height="70.622mm"
   viewBox="0 0 157.066 70.622"
   version="1.1"
   id="svg13"
   sodipodi:docname="neck_bracket.svg"
   inkscape:version="1.4.2 (ebf0e940d0, 2025-05-08)"
   xmlns:inkscape="http://www.inkscape.org/namespaces/inkscape"
   xmlns:sodipodi="http://sodipodi.sourceforge.net/DTD/sodipodi-0.dtd"
   xmlns="http://www.w3.org/2000/svg"
   xmlns:svg="http://www.w3.org/2000/svg">
  <defs
     id="defs13" />
  <sodipodi:namedview
     id="namedview13"
     pagecolor="#ffffff"
     bordercolor="#000000"
     borderopacity="0.25"
     inkscape:showpageshadow="2"
     inkscape:pageopacity="0.0"
     inkscape:pagecheckerboard="0"
     inkscape:deskcolor="#d1d1d1"
     inkscape:document-units="mm"
     inkscape:zoom="1.0702455"
     inkscape:cx="330.76524"
     inkscape:cy="104.18171"
     inkscape:window-width="1920"
     inkscape:window-height="1012"
     inkscape:window-x="0"
     inkscape:window-y="0"
     inkscape:window-maximized="1"
     inkscape:current-layer="svg13" />
  <title
     id="title1">Exported SVG</title>
  <style
     id="style1"><![CDATA[
polygon {
shape-rendering:crispEdges;
stroke-width:0.157066;
}
.s0 {
stroke:#000000;
stroke-width:0.120934;
stroke-linecap:round;
stroke-linejoin:round;
fill:none;
}
.s1 {
stroke:#000000;
stroke-width:0.120934;
stroke-linecap:round;
stroke-linejoin:round;
fill:none;
}
.s2 {
stroke:#19b219;
stroke-width:0.120934;
stroke-linecap:round;
stroke-linejoin:round;
fill:none;
}
.s3 {
stroke:#7f4c00;
stroke-width:0.120934;
stroke-linecap:round;
stroke-linejoin:round;
fill:none;
}
.s4 {
stroke:#00cc00;
stroke-width:0.120934;
stroke-linecap:round;
stroke-linejoin:round;
fill:none;
}
.s5 {
stroke:#000000;
stroke-width:0.080623;
stroke-linecap:round;
stroke-linejoin:round;
fill:none;
}
.s6 {
stroke:#ff19ff;
stroke-width:0.080623;
stroke-linecap:round;
stroke-linejoin:round;
fill:none;
}
.s7 {
stroke:#ff0000;
stroke-width:0.120934;
stroke-linecap:round;
stroke-linejoin:round;
fill:none;
}
.s8 {
stroke:#ffff00;
stroke-width:0.120934;
stroke-linecap:round;
stroke-linejoin:round;
fill:none;
}
.s9 {
stroke:#001919;
stroke-width:0.080623;
stroke-linecap:round;
stroke-linejoin:round;
fill:none;
}
.sa {
stroke:#006666;
stroke-width:0.080623;
stroke-linecap:round;
stroke-linejoin:round;
fill:none;
}
.sb {
stroke:#00ffff;
stroke-width:0.241868;
stroke-linecap:round;
stroke-linejoin:round;
fill:none;
}
.sc {
stroke:#ff0000;
stroke-width:0.644982;
stroke-linecap:round;
stroke-linejoin:round;
fill:none;
}
.sd {
stroke:#191919;
stroke-width:0.080623;
stroke-linecap:round;
stroke-linejoin:round;
fill:none;
}
.se {
stroke:#000000;
stroke-width:0.080623;
stroke-linecap:round;
stroke-linejoin:round;
stroke-dasharray:1.209,1.209;
fill:none;
}
.sf {
stroke:#000000;
stroke-width:0.241868;
stroke-linecap:round;
stroke-linejoin:round;
fill:none;
}
]]></style>
  <path
     d="M151.366 7.469 A2.500,2.500 0 0,0 148.866,5.000 L130.725,5.000 L105.733,5.627 L51.333,5.627 L26.341,5.000 L8.200,5.000 A2.500,2.500 0 0,0 5.701,7.469 L5.013,62.464 A2.500,2.500 0 0,0 5.734,64.252 A2.500,2.500 0 0,0 7.513,64.995 L25.591,64.995 L50.583,65.622 L106.483,65.622 L131.475,64.995 L149.554,64.995 A2.500,2.500 0 0,0 151.332,64.252 A2.500,2.500 0 0,0 152.053,62.464 L151.366,7.469 "
     class="s1"
     id="path1" />
  <path
     d="M18.013 15.000 A3.000,3.000 0 0,1 15.013,18.000 A3.000,3.000 0 0,1 12.013,15.000 A3.000,3.000 0 0,1 15.013,12.000 A3.000,3.000 0 0,1 18.013,15.000 "
     class="s1"
     id="path2" />
  <path
     d="M18.013 54.995 A3.000,3.000 0 0,1 15.013,57.995 A3.000,3.000 0 0,1 12.013,54.995 A3.000,3.000 0 0,1 15.013,51.995 A3.000,3.000 0 0,1 18.013,54.995 "
     class="s1"
     id="path3" />
  <path
     d="M145.053 15.000 A3.000,3.000 0 0,1 142.053,18.000 A3.000,3.000 0 0,1 139.053,15.000 A3.000,3.000 0 0,1 142.053,12.000 A3.000,3.000 0 0,1 145.053,15.000 "
     class="s1"
     id="path4" />
  <path
     d="M145.053 54.995 A3.000,3.000 0 0,1 142.053,57.995 A3.000,3.000 0 0,1 139.053,54.995 A3.000,3.000 0 0,1 142.053,51.995 A3.000,3.000 0 0,1 145.053,54.995 "
     class="s1"
     id="path5" />
  <path
     d="M69.209 15.627 A3.000,3.000 0 0,1 66.209,18.627 A3.000,3.000 0 0,1 63.209,15.627 A3.000,3.000 0 0,1 66.209,12.627 A3.000,3.000 0 0,1 69.209,15.627 "
     class="s1"
     id="path6" />
  <path
     d="M93.857 15.627 A3.000,3.000 0 0,1 90.857,18.627 A3.000,3.000 0 0,1 87.857,15.627 A3.000,3.000 0 0,1 90.857,12.627 A3.000,3.000 0 0,1 93.857,15.627 "
     class="s1"
     id="path7" />
  <path
     d="M69.209 50.622 A3.000,3.000 0 0,1 66.209,53.622 A3.000,3.000 0 0,1 63.209,50.622 A3.000,3.000 0 0,1 66.209,47.622 A3.000,3.000 0 0,1 69.209,50.622 "
     class="s1"
     id="path8" />
  <path
     d="M93.857 50.622 A3.000,3.000 0 0,1 90.857,53.622 A3.000,3.000 0 0,1 87.857,50.622 A3.000,3.000 0 0,1 90.857,47.622 A3.000,3.000 0 0,1 93.857,50.622 "
     class="s1"
     id="path9" />
  <path
     d="M26.341 5.000 L25.591,64.995 "
     class="s1"
     id="path10"
     style="stroke:#00ff00;stroke-opacity:1" />
  <path
     d="M51.333 5.627 L50.583,65.622 "
     class="s1"
     id="path11"
     style="stroke:#00ff00;stroke-opacity:1" />
  <path
     d="M105.733 5.627 L106.483,65.622 "
     class="s1"
     id="path12"
     style="stroke:#00ff00;stroke-opacity:1" />
  <path
     d="M130.725 5.000 L131.475,64.995 "
     class="s1"
     id="path13"
     style="stroke:#00ff00;stroke-opacity:1" />
</svg>
